<svg xmlns="http://www.w3.org/2000/svg" viewBox="0 0 64 63.96"><defs><style>.cls-1{fill:#ffb74d;}.cls-2{fill:#ef9014;}</style></defs><title>Hand</title><g id="Layer_2" data-name="Layer 2"><g id="Layer_1-2" data-name="Layer 1"><path class="cls-1" d="M62.67,26a4.45,4.45,0,0,0-6.4,0l4.8-4.92a4.72,4.72,0,0,0,0-6.56,4.45,4.45,0,0,0-6.4,0l3.2-3.28a4.72,4.72,0,0,0,0-6.56,4.45,4.45,0,0,0-6.4,0l-3.2,3.28a4.72,4.72,0,0,0,0-6.56,4.45,4.45,0,0,0-6.4,0L22.78,20.92h0a7.08,7.08,0,0,0-.13-9.7,2.23,2.23,0,0,0-3.2,0L6.63,24.34a23.62,23.62,0,0,0,0,32.82l.08.09.16.14a22.24,22.24,0,0,0,31.78-.22l24-24.62A4.72,4.72,0,0,0,62.67,26Z"/><path class="cls-2" d="M49.86,6.28,26.72,26.84a1.12,1.12,0,0,0-.06,1.61l0,0a1.06,1.06,0,0,0,1.52,0Z"/><path class="cls-2" d="M56.27,12.85,33.13,33.41A1.12,1.12,0,0,0,33.07,35l0,0a1.06,1.06,0,0,0,1.52,0Z"/><path class="cls-2" d="M56.27,26,39.58,40a1.12,1.12,0,0,0-.08,1.63h0a1.06,1.06,0,0,0,1.52,0Z"/><path class="cls-2" d="M22.65,21.05l-8,8.21A18.63,18.63,0,0,1,17.84,49s6.4-9.85,0-19.69Z"/></g></g></svg>